<svg width="50" height="50" viewBox="0 0 50 50" fill="none" xmlns="http://www.w3.org/2000/svg">
<rect x="24.7487" width="35" height="35" transform="rotate(45 24.7487 0)" fill="white"/>
<path d="M24.75 28.3809C24.75 29.0182 24.6283 29.6162 24.3848 30.1748C24.1413 30.7334 23.8083 31.224 23.3857 31.6465C22.9704 32.0618 22.4834 32.3913 21.9248 32.6348C21.3662 32.8783 20.7682 33 20.1309 33H12.4287V17.5957H20.1309C20.7682 17.5957 21.3662 17.7174 21.9248 17.9609C22.4834 18.2044 22.9704 18.5374 23.3857 18.96C23.8083 19.3753 24.1413 19.8623 24.3848 20.4209C24.6283 20.9795 24.75 21.5775 24.75 22.2148C24.75 22.5013 24.7106 22.7949 24.6318 23.0957C24.5531 23.3965 24.4421 23.6865 24.2988 23.9658C24.1556 24.2451 23.9837 24.4993 23.7832 24.7285C23.5827 24.9577 23.3607 25.1475 23.1172 25.2979C23.3678 25.4339 23.5934 25.6201 23.7939 25.8564C23.9945 26.0856 24.1663 26.3398 24.3096 26.6191C24.4528 26.8984 24.5602 27.1921 24.6318 27.5C24.7106 27.8008 24.75 28.0944 24.75 28.3809ZM15.5117 29.917H20.1309C20.3457 29.917 20.5462 29.8776 20.7324 29.7988C20.9186 29.7201 21.0798 29.6126 21.2158 29.4766C21.359 29.3333 21.4701 29.1686 21.5488 28.9824C21.6276 28.7962 21.667 28.5957 21.667 28.3809C21.667 28.166 21.6276 27.9655 21.5488 27.7793C21.4701 27.5931 21.359 27.432 21.2158 27.2959C21.0798 27.1527 20.9186 27.0417 20.7324 26.9629C20.5462 26.8841 20.3457 26.8447 20.1309 26.8447H15.5117V29.917ZM15.5117 23.7617H20.1309C20.3457 23.7617 20.5462 23.7223 20.7324 23.6436C20.9186 23.5648 21.0798 23.4574 21.2158 23.3213C21.359 23.1781 21.4701 23.0133 21.5488 22.8271C21.6276 22.6338 21.667 22.4297 21.667 22.2148C21.667 22 21.6276 21.7995 21.5488 21.6133C21.4701 21.4271 21.359 21.266 21.2158 21.1299C21.0798 20.9867 20.9186 20.8757 20.7324 20.7969C20.5462 20.7181 20.3457 20.6787 20.1309 20.6787H15.5117V23.7617ZM30.1641 33H27.0811V17.5957H37.8662V20.6787H30.1641V23.7617H34.7832V26.8447H30.1641V33Z" fill="#005672"/>
</svg>
